HIERARCHY
ROOT Hips
{
    OFFSET 0.000000 0.000000 0.000000
    CHANNELS 6 Xposition Yposition Zposition Zrotation Xrotation Yrotation
    JOINT Spine
    {
        OFFSET -0.000000 14.517291 0.000000
        CHANNELS 3 Zrotation Xrotation Yrotation
        JOINT Spine1
        {
            OFFSET -0.000000 37.558300 0.000000
            CHANNELS 3 Zrotation Xrotation Yrotation
            JOINT Neck
            {
                OFFSET -0.000000 37.404057 3.400369
                CHANNELS 3 Zrotation Xrotation Yrotation
                JOINT Head
                {
                    OFFSET -0.000000 24.785618 -3.540803
                    CHANNELS 3 Zrotation Xrotation Yrotation
                    End Site
                    {
                        OFFSET -0.000000 35.408028 0.000000
                    }
                }
            }
            JOINT LeftShoulder
            {
                OFFSET 6.992933 33.973492 -0.192664
                CHANNELS 3 Zrotation Xrotation Yrotation
                JOINT LeftArm
                {
                    OFFSET 21.527611 0.000000 0.000000
                    CHANNELS 3 Zrotation Xrotation Yrotation
                    JOINT LeftForeArm
                    {
                        OFFSET 56.353916 0.000000 0.000000
                        CHANNELS 3 Zrotation Xrotation Yrotation
                        JOINT LeftHand
                        {
                            OFFSET 47.774071 0.000000 0.000000
                            CHANNELS 3 Zrotation Xrotation Yrotation
                            End Site
                            {
                                OFFSET 26.556021 0.000000 0.000000
                            }
                        }
                    }
                }
            }
            JOINT RightShoulder
            {
                OFFSET -7.065357 33.973492 -0.192664
                CHANNELS 3 Zrotation Xrotation Yrotation
                JOINT RightArm
                {
                    OFFSET -21.527611 0.000000 0.000000
                    CHANNELS 3 Zrotation Xrotation Yrotation
                    JOINT RightForeArm
                    {
                        OFFSET -56.353916 0.000000 0.000000
                        CHANNELS 3 Zrotation Xrotation Yrotation
                        JOINT RightHand
                        {
                            OFFSET -47.774071 0.000000 0.000000
                            CHANNELS 3 Zrotation Xrotation Yrotation
                            End Site
                            {
                                OFFSET -26.556021 0.000000 0.000000
                            }
                        }
                    }
                }
            }
        }
    }
    JOINT LeftUpLeg
    {
        OFFSET 17.704014 0.000000 0.000000
        CHANNELS 3 Zrotation Xrotation Yrotation
        JOINT LeftLeg
        {
            OFFSET -0.000000 -81.181816 0.000000
            CHANNELS 3 Zrotation Xrotation Yrotation
            JOINT LeftFoot
            {
                OFFSET -0.000000 -62.821102 0.000000
                CHANNELS 3 Zrotation Xrotation Yrotation
                JOINT LeftToeBase
                {
                    OFFSET -0.000000 -11.507608 26.556021
                    CHANNELS 3 Zrotation Xrotation Yrotation
                    End Site
                    {
                        OFFSET -0.000000 0.000000 7.081605
                    }
                }
            }
        }
    }
    JOINT RightUpLeg
    {
        OFFSET -17.704014 0.000000 0.000000
        CHANNELS 3 Zrotation Xrotation Yrotation
        JOINT RightLeg
        {
            OFFSET -0.000000 -81.181816 0.000000
            CHANNELS 3 Zrotation Xrotation Yrotation
            JOINT RightFoot
            {
                OFFSET -0.000000 -62.821102 0.000000
                CHANNELS 3 Zrotation Xrotation Yrotation
                JOINT RightToeBase
                {
                    OFFSET -0.000000 -11.507608 26.556021
                    CHANNELS 3 Zrotation Xrotation Yrotation
                    End Site
                    {
                        OFFSET -0.000000 0.000000 7.081605
                    }
                }
            }
        }
    }
}
MOTION
Frames:    11
Frame Time:    0.008333
19.499830    155.653214    -106.513550    1.652036    -8.215688    42.191830    -1.364270    -0.392958    0.214821    3.241272    5.908514    -0.093646    -8.692061    7.419639    -19.538422    23.359741    1.123433    -16.642956    6.970929    4.529156    -14.122248    -34.310398    29.467489    -1.109444    -12.726787    -6.650366    -130.175964    -2.022516    -32.650749    -8.710331    -4.581740    6.468965    -4.470279    34.550335    -13.381219    47.499187    -21.388355    -8.351350    70.112785    -12.642128    3.004714    34.039711    16.969072    -0.063043    0.354411    -14.761373    35.260380    -17.132814    7.221025    -27.029013    42.901348    0.000000    0.000000    0.000000    -20.151304    -12.747291    -16.577087    13.017258    30.770725    -14.516884    11.309801    4.400089    -16.605255    0.000000    0.000000    0.000000    
19.475512    155.640732    -106.519928    1.648902    -8.218039    42.279877    -1.364002    -0.403870    0.160450    3.182003    5.959657    -0.110596    -8.601573    7.333438    -19.550838    23.355865    1.170818    -16.667007    6.793997    4.751511    -14.184408    -34.313095    29.306084    -2.621589    -12.495186    -7.582263    -129.790558    -1.828023    -32.796776    -8.442583    -4.525975    6.465814    -4.488963    34.534660    -13.364065    47.546085    -21.421446    -8.386734    70.067749    -12.652897    2.973023    34.074043    16.995356    -0.131635    0.312152    -14.782047    35.322723    -17.151943    7.234122    -27.030903    42.901360    0.000000    0.000000    0.000000    -20.156267    -12.736690    -16.594927    13.026164    30.797859    -14.525879    11.316472    4.382895    -16.645088    0.000000    0.000000    0.000000    
19.449537    155.629501    -106.522751    1.647145    -8.231391    42.364311    -1.362022    -0.412162    0.104013    3.125561    6.018694    -0.127101    -8.509852    7.293199    -19.565580    23.373018    1.164490    -16.683691    6.633148    4.976686    -14.258801    -34.297974    29.056635    -4.134146    -12.281542    -8.436229    -129.390839    -1.709676    -32.909874    -8.359095    -4.477835    6.451961    -4.487937    34.487907    -13.302412    47.566280    -21.506859    -8.471277    69.987389    -12.638331    2.934263    34.055466    17.029507    -0.184274    0.278816    -14.789168    35.373138    -17.184391    7.235008    -27.039883    42.879810    0.000000    0.000000    0.000000    -20.154228    -12.715411    -16.602991    13.040754    30.826378    -14.546423    11.351895    4.339722    -16.672361    0.000000    0.000000    0.000000    
19.426519    155.615479    -106.530655    1.652624    -8.239708    42.448257    -1.362280    -0.425484    0.054704    3.055425    6.082792    -0.141801    -8.430169    7.250582    -19.582296    23.420120    1.176205    -16.701105    6.487815    5.220583    -14.343235    -34.292603    28.795984    -5.677205    -12.114182    -9.228487    -128.987747    -1.585255    -33.071842    -8.090268    -4.428345    6.459058    -4.484694    34.455723    -13.263498    47.587692    -21.564714    -8.557556    69.920326    -12.642841    2.865034    34.087734    17.049931    -0.231961    0.260438    -14.788082    35.420193    -17.224812    7.256247    -27.032948    42.868549    0.000000    0.000000    0.000000    -20.167887    -12.697359    -16.598862    13.078459    30.851183    -14.573710    11.363561    4.314292    -16.723719    0.000000    0.000000    0.000000    
19.404963    155.603592    -106.532433    1.664269    -8.258419    42.525280    -1.367166    -0.428296    0.004251    2.994370    6.145957    -0.149580    -8.359612    7.215066    -19.592876    23.480160    1.185284    -16.709620    6.337690    5.456858    -14.414165    -34.253387    28.522627    -7.267556    -11.974607    -9.936310    -128.537567    -1.559463    -33.194588    -7.853206    -4.382746    6.463506    -4.472991    34.412235    -13.225521    47.593048    -21.614229    -8.648515    69.859085    -12.619511    2.800903    34.072548    17.074392    -0.256806    0.239478    -14.792275    35.454208    -17.248270    7.255824    -27.042219    42.844604    0.000000    0.000000    0.000000    -20.175055    -12.671332    -16.596233    13.104572    30.884377    -14.583924    11.381439    4.287460    -16.775223    0.000000    0.000000    0.000000    
19.385281    155.592224    -106.533226    1.682891    -8.277582    42.599632    -1.385908    -0.429553    -0.023905    2.945648    6.210855    -0.174859    -8.255185    7.184340    -19.592714    23.489027    1.169615    -16.711689    6.175848    5.707644    -14.524239    -34.243912    28.438185    -8.809896    -11.727700    -10.987641    -128.175018    -1.577718    -33.462997    -7.701390    -4.326438    6.454346    -4.465468    34.338799    -13.145043    47.594116    -21.702070    -8.775723    69.760986    -12.574396    2.717486    34.113735    17.090843    -0.268256    0.230895    -14.777542    35.478336    -17.290428    7.259735    -27.050028    42.820274    0.000000    0.000000    0.000000    -20.185745    -12.643815    -16.601583    13.116405    30.928783    -14.581770    11.416914    4.249924    -16.818375    0.000000    0.000000    0.000000    
19.359339    155.585510    -106.535629    1.703112    -8.287988    42.660683    -1.408095    -0.436177    -0.058418    2.880899    6.280169    -0.178443    -8.124138    7.141480    -19.592367    23.467682    1.161383    -16.720463    6.016070    5.956557    -14.631181    -34.194324    28.306513    -10.376217    -11.433900    -12.036836    -127.754417    -1.715947    -33.625069    -7.669795    -4.262807    6.449198    -4.465059    34.272423    -13.057939    47.604855    -21.786858    -8.921028    69.664276    -12.512526    2.620821    34.140514    17.098970    -0.279504    0.247469    -14.748496    35.497128    -17.357847    7.256588    -27.041868    42.801731    0.000000    0.000000    0.000000    -20.199902    -12.622064    -16.564863    13.159246    30.946741    -14.642313    11.409269    4.231681    -16.833818    0.000000    0.000000    0.000000    
19.339165    155.579239    -106.538948    1.723926    -8.300169    42.726814    -1.393267    -0.448087    -0.093192    2.830569    6.349692    -0.186890    -8.137815    7.111973    -19.587389    23.527458    1.172774    -16.706345    5.713194    6.213730    -14.751432    -34.025768    28.340746    -11.912112    -11.061625    -13.343638    -127.349762    -1.989524    -33.884190    -7.769647    -4.299088    6.478010    -4.477843    34.360672    -13.079881    47.685486    -21.781408    -8.913296    69.656052    -12.524777    2.616832    34.155033    17.104332    -0.294436    0.243264    -14.730982    35.523800    -17.381622    7.243209    -27.052492    42.764385    0.000000    0.000000    0.000000    -20.214041    -12.595618    -16.585516    13.162698    30.975187    -14.618253    11.425475    4.210600    -16.890179    0.000000    0.000000    0.000000    
19.307486    155.575974    -106.545189    1.733537    -8.302154    42.783768    -1.425775    -0.462418    -0.122757    2.779076    6.415933    -0.193527    -7.927497    6.993366    -19.552364    23.359781    1.206665    -16.707497    5.526617    6.516266    -14.844782    -33.837372    28.202999    -13.569555    -10.695759    -14.438492    -126.873055    -2.440121    -33.953377    -8.040699    -4.205983    6.466636    -4.492748    34.262875    -12.972553    47.719025    -21.907562    -9.081280    69.518890    -12.473334    2.507546    34.221298    17.113779    -0.327549    0.243729    -14.711572    35.552914    -17.423532    7.234719    -27.045706    42.744110    0.000000    0.000000    0.000000    -20.223328    -12.588372    -16.592051    13.180784    30.994516    -14.656699    11.435395    4.194222    -16.909393    0.000000    0.000000    0.000000    
19.278229    155.572174    -106.553558    1.744323    -8.300547    42.843792    -1.451924    -0.476656    -0.150500    2.703440    6.477279    -0.200707    -7.674377    6.880777    -19.520092    23.155256    1.232367    -16.719265    5.332982    6.819679    -14.932002    -33.563961    27.956415    -15.282598    -10.327915    -15.358887    -126.340546    -2.500658    -33.898464    -8.060149    -4.093091    6.452314    -4.513575    34.186062    -12.900270    47.759441    -21.983534    -9.190472    69.406357    -12.474290    2.415298    34.256283    17.114162    -0.365745    0.238038    -14.692740    35.580837    -17.428780    7.203950    -27.043764    42.696159    0.000000    0.000000    0.000000    -20.238453    -12.580571    -16.617411    13.176188    31.023523    -14.652385    11.474553    4.176157    -16.925564    0.000000    0.000000    0.000000    
19.242731    155.572220    -106.557861    1.745292    -8.308864    42.906132    -1.465953    -0.486313    -0.184168    2.663062    6.524728    -0.211611    -7.498935    6.776268    -19.470951    22.988964    1.263844    -16.703415    5.075469    7.099986    -15.072069    -33.286610    27.757584    -16.874870    -9.892699    -16.369673    -125.789398    -2.852073    -33.804436    -8.290526    -4.037825    6.463173    -4.530460    34.152039    -12.840019    47.821754    -22.075655    -9.296610    69.308914    -12.453461    2.348351    34.296204    17.135115    -0.411248    0.191525    -14.701364    35.615559    -17.449739    7.205985    -27.028263    42.700691    0.000000    0.000000    0.000000    -20.232910    -12.566940    -16.643559    13.173129    31.035961    -14.668895    11.480974    4.179316    -16.934420    0.000000    0.000000    0.000000    
